# Blender 4.2.0
# www.blender.org
o Test_Cube
v 1.000000 1.000000 -1.000000
v 1.000000 -1.000000 -1.000000
v 1.000000 1.000000 1.000000
v 1.000000 -1.000000 1.000000
v -1.000000 1.000000 -1.000000
v -1.000000 -1.000000 -1.000000
v -1.000000 1.000000 1.000000
v -1.000000 -1.000000 1.000000
v 0.280500 2.341000 -0.100000
v -0.307500 2.341000 -0.100000
v 0.126500 1.747000 -0.100000
v -0.307500 1.747000 -0.100000
v -0.307500 1.659000 -0.100000
v 0.307500 1.659000 -0.100000
v -0.126500 2.253000 -0.100000
v 0.280500 2.253000 -0.100000
v 0.280500 2.341000 0.100000
v -0.307500 2.341000 0.100000
v 0.126500 1.747000 0.100000
v -0.307500 1.747000 0.100000
v -0.307500 1.659000 0.100000
v 0.307500 1.659000 0.100000
v -0.126500 2.253000 0.100000
v 0.280500 2.253000 0.100000
v 0.280500 2.341000 0.100000
v 0.280500 2.341000 -0.100000
v -0.307500 2.341000 0.100000
v -0.307500 2.341000 -0.100000
v 0.126500 1.747000 0.100000
v 0.126500 1.747000 -0.100000
v -0.307500 1.747000 0.100000
v -0.307500 1.747000 -0.100000
v -0.307500 1.659000 0.100000
v -0.307500 1.659000 -0.100000
v 0.307500 1.659000 0.100000
v 0.307500 1.659000 -0.100000
v -0.126500 2.253000 0.100000
v -0.126500 2.253000 -0.100000
v 0.280500 2.253000 0.100000
v 0.280500 2.253000 -0.100000
v 2.352000 -0.341000 0.100000
v 2.234000 -0.341000 0.100000
v 2.002000 -0.059000 0.100000
v 1.767000 -0.341000 0.100000
v 1.648000 -0.341000 0.100000
v 1.942000 0.012000 0.100000
v 1.669000 0.341000 0.100000
v 1.788000 0.341000 0.100000
v 2.002000 0.081000 0.100000
v 2.215000 0.341000 0.100000
v 2.333000 0.341000 0.100000
v 2.061000 0.012000 0.100000
v 2.352000 -0.341000 -0.100000
v 2.234000 -0.341000 -0.100000
v 2.002000 -0.059000 -0.100000
v 1.767000 -0.341000 -0.100000
v 1.648000 -0.341000 -0.100000
v 1.942000 0.012000 -0.100000
v 1.669000 0.341000 -0.100000
v 1.788000 0.341000 -0.100000
v 2.002000 0.081000 -0.100000
v 2.215000 0.341000 -0.100000
v 2.333000 0.341000 -0.100000
v 2.061000 0.012000 -0.100000
v 2.352000 -0.341000 -0.100000
v 2.352000 -0.341000 0.100000
v 2.234000 -0.341000 -0.100000
v 2.234000 -0.341000 0.100000
v 2.002000 -0.059000 -0.100000
v 2.002000 -0.059000 0.100000
v 1.767000 -0.341000 -0.100000
v 1.767000 -0.341000 0.100000
v 1.648000 -0.341000 -0.100000
v 1.648000 -0.341000 0.100000
v 1.942000 0.012000 -0.100000
v 1.942000 0.012000 0.100000
v 1.669000 0.341000 -0.100000
v 1.669000 0.341000 0.100000
v 1.788000 0.341000 -0.100000
v 1.788000 0.341000 0.100000
v 2.002000 0.081000 -0.100000
v 2.002000 0.081000 0.100000
v 2.215000 0.341000 -0.100000
v 2.215000 0.341000 0.100000
v 2.333000 0.341000 -0.100000
v 2.333000 0.341000 0.100000
v 2.061000 0.012000 -0.100000
v 2.061000 0.012000 0.100000
v -1.876259 -0.341000 0.100000
v -1.994259 -0.341000 0.100000
v -2.226259 -0.059000 0.100000
v -2.461259 -0.341000 0.100000
v -2.580259 -0.341000 0.100000
v -2.286259 0.012000 0.100000
v -2.559259 0.341000 0.100000
v -2.440259 0.341000 0.100000
v -2.226259 0.081000 0.100000
v -2.013259 0.341000 0.100000
v -1.895259 0.341000 0.100000
v -2.167259 0.012000 0.100000
v -1.876259 -0.341000 -0.100000
v -1.994259 -0.341000 -0.100000
v -2.226259 -0.059000 -0.100000
v -2.461259 -0.341000 -0.100000
v -2.580259 -0.341000 -0.100000
v -2.286259 0.012000 -0.100000
v -2.559259 0.341000 -0.100000
v -2.440259 0.341000 -0.100000
v -2.226259 0.081000 -0.100000
v -2.013259 0.341000 -0.100000
v -1.895259 0.341000 -0.100000
v -2.167259 0.012000 -0.100000
v -1.876259 -0.341000 -0.100000
v -1.876259 -0.341000 0.100000
v -1.994259 -0.341000 -0.100000
v -1.994259 -0.341000 0.100000
v -2.226259 -0.059000 -0.100000
v -2.226259 -0.059000 0.100000
v -2.461259 -0.341000 -0.100000
v -2.461259 -0.341000 0.100000
v -2.580259 -0.341000 -0.100000
v -2.580259 -0.341000 0.100000
v -2.286259 0.012000 -0.100000
v -2.286259 0.012000 0.100000
v -2.559259 0.341000 -0.100000
v -2.559259 0.341000 0.100000
v -2.440259 0.341000 -0.100000
v -2.440259 0.341000 0.100000
v -2.226259 0.081000 -0.100000
v -2.226259 0.081000 0.100000
v -2.013259 0.341000 -0.100000
v -2.013259 0.341000 0.100000
v -1.895259 0.341000 -0.100000
v -1.895259 0.341000 0.100000
v -2.167259 0.012000 -0.100000
v -2.167259 0.012000 0.100000
v 0.280500 -1.659000 -0.100000
v -0.307500 -1.659000 -0.100000
v 0.126500 -2.253000 -0.100000
v -0.307500 -2.253000 -0.100000
v -0.307500 -2.341000 -0.100000
v 0.307500 -2.341000 -0.100000
v -0.126500 -1.747000 -0.100000
v 0.280500 -1.747000 -0.100000
v 0.280500 -1.659000 0.100000
v -0.307500 -1.659000 0.100000
v 0.126500 -2.253000 0.100000
v -0.307500 -2.253000 0.100000
v -0.307500 -2.341000 0.100000
v 0.307500 -2.341000 0.100000
v -0.126500 -1.747000 0.100000
v 0.280500 -1.747000 0.100000
v 0.280500 -1.659000 0.100000
v 0.280500 -1.659000 -0.100000
v -0.307500 -1.659000 0.100000
v -0.307500 -1.659000 -0.100000
v 0.126500 -2.253000 0.100000
v 0.126500 -2.253000 -0.100000
v -0.307500 -2.253000 0.100000
v -0.307500 -2.253000 -0.100000
v -0.307500 -2.341000 0.100000
v -0.307500 -2.341000 -0.100000
v 0.307500 -2.341000 0.100000
v 0.307500 -2.341000 -0.100000
v -0.126500 -1.747000 0.100000
v -0.126500 -1.747000 -0.100000
v 0.280500 -1.747000 0.100000
v 0.280500 -1.747000 -0.100000
v 0.302000 0.341000 -1.900000
v 0.049000 0.019000 -1.900000
v 0.049000 -0.341000 -1.900000
v -0.049000 -0.341000 -1.900000
v -0.049000 0.020000 -1.900000
v -0.302000 0.341000 -1.900000
v -0.184000 0.341000 -1.900000
v -0.001000 0.106000 -1.900000
v 0.184000 0.341000 -1.900000
v 0.302000 0.341000 -2.100000
v 0.049000 0.019000 -2.100000
v 0.049000 -0.341000 -2.100000
v -0.049000 -0.341000 -2.100000
v -0.049000 0.020000 -2.100000
v -0.302000 0.341000 -2.100000
v -0.184000 0.341000 -2.100000
v -0.001000 0.106000 -2.100000
v 0.184000 0.341000 -2.100000
v 0.302000 0.341000 -2.100000
v 0.302000 0.341000 -1.900000
v 0.049000 0.019000 -2.100000
v 0.049000 0.019000 -1.900000
v 0.049000 -0.341000 -2.100000
v 0.049000 -0.341000 -1.900000
v -0.049000 -0.341000 -2.100000
v -0.049000 -0.341000 -1.900000
v -0.049000 0.020000 -2.100000
v -0.049000 0.020000 -1.900000
v -0.302000 0.341000 -2.100000
v -0.302000 0.341000 -1.900000
v -0.184000 0.341000 -2.100000
v -0.184000 0.341000 -1.900000
v -0.001000 0.106000 -2.100000
v -0.001000 0.106000 -1.900000
v 0.184000 0.341000 -2.100000
v 0.184000 0.341000 -1.900000
v 0.302000 0.341000 2.100000
v 0.049000 0.019000 2.100000
v 0.049000 -0.341000 2.100000
v -0.049000 -0.341000 2.100000
v -0.049000 0.020000 2.100000
v -0.302000 0.341000 2.100000
v -0.184000 0.341000 2.100000
v -0.001000 0.106000 2.100000
v 0.184000 0.341000 2.100000
v 0.302000 0.341000 1.900000
v 0.049000 0.019000 1.900000
v 0.049000 -0.341000 1.900000
v -0.049000 -0.341000 1.900000
v -0.049000 0.020000 1.900000
v -0.302000 0.341000 1.900000
v -0.184000 0.341000 1.900000
v -0.001000 0.106000 1.900000
v 0.184000 0.341000 1.900000
v 0.302000 0.341000 1.900000
v 0.302000 0.341000 2.100000
v 0.049000 0.019000 1.900000
v 0.049000 0.019000 2.100000
v 0.049000 -0.341000 1.900000
v 0.049000 -0.341000 2.100000
v -0.049000 -0.341000 1.900000
v -0.049000 -0.341000 2.100000
v -0.049000 0.020000 1.900000
v -0.049000 0.020000 2.100000
v -0.302000 0.341000 1.900000
v -0.302000 0.341000 2.100000
v -0.184000 0.341000 1.900000
v -0.184000 0.341000 2.100000
v -0.001000 0.106000 1.900000
v -0.001000 0.106000 2.100000
v 0.184000 0.341000 1.900000
v 0.184000 0.341000 2.100000
v 0.378500 -0.046500 2.100000
v 0.378500 0.046500 2.100000
v 0.621500 0.046500 2.100000
v 0.621500 -0.046500 2.100000
v 0.378500 -0.046500 1.900000
v 0.378500 0.046500 1.900000
v 0.621500 0.046500 1.900000
v 0.621500 -0.046500 1.900000
v 0.378500 -0.046500 1.900000
v 0.378500 -0.046500 2.100000
v 0.378500 0.046500 1.900000
v 0.378500 0.046500 2.100000
v 0.621500 0.046500 1.900000
v 0.621500 0.046500 2.100000
v 0.621500 -0.046500 1.900000
v 0.621500 -0.046500 2.100000
v -1.747832 -0.046500 0.100000
v -1.747832 0.046500 0.100000
v -1.504832 0.046500 0.100000
v -1.504832 -0.046500 0.100000
v -1.747832 -0.046500 -0.100000
v -1.747832 0.046500 -0.100000
v -1.504832 0.046500 -0.100000
v -1.504832 -0.046500 -0.100000
v -1.747832 -0.046500 -0.100000
v -1.747832 -0.046500 0.100000
v -1.747832 0.046500 -0.100000
v -1.747832 0.046500 0.100000
v -1.504832 0.046500 -0.100000
v -1.504832 0.046500 0.100000
v -1.504832 -0.046500 -0.100000
v -1.504832 -0.046500 0.100000
v 0.378500 -2.046500 0.100000
v 0.378500 -1.953500 0.100000
v 0.621500 -1.953500 0.100000
v 0.621500 -2.046500 0.100000
v 0.378500 -2.046500 -0.100000
v 0.378500 -1.953500 -0.100000
v 0.621500 -1.953500 -0.100000
v 0.621500 -2.046500 -0.100000
v 0.378500 -2.046500 -0.100000
v 0.378500 -2.046500 0.100000
v 0.378500 -1.953500 -0.100000
v 0.378500 -1.953500 0.100000
v 0.621500 -1.953500 -0.100000
v 0.621500 -1.953500 0.100000
v 0.621500 -2.046500 -0.100000
v 0.621500 -2.046500 0.100000
vn -0.0000 1.0000 -0.0000
vn -0.0000 -0.0000 1.0000
vn -1.0000 -0.0000 -0.0000
vn -0.0000 -1.0000 -0.0000
vn 1.0000 -0.0000 -0.0000
vn -0.0000 -0.0000 -1.0000
vn -0.8074 -0.5899 -0.0000
vn 0.8074 0.5899 -0.0000
vn -0.7722 -0.6353 -0.0000
vn 0.7682 -0.6402 -0.0000
vn -0.7684 0.6400 -0.0000
vn -0.7696 -0.6386 -0.0000
vn 0.7721 0.6355 -0.0000
vn -0.7736 0.6337 -0.0000
vn 0.7707 -0.6372 -0.0000
vn 0.7716 0.6361 -0.0000
vn 0.7863 -0.6178 -0.0000
vn -0.7854 -0.6190 -0.0000
vn 0.7890 0.6144 -0.0000
vn -0.7857 0.6186 -0.0000
vt 0.875000 0.500000
vt 0.625000 0.750000
vt 0.625000 0.500000
vt 0.375000 1.000000
vt 0.375000 0.750000
vt 0.625000 0.000000
vt 0.375000 0.250000
vt 0.375000 0.000000
vt 0.375000 0.500000
vt 0.125000 0.750000
vt 0.125000 0.500000
vt 0.625000 0.250000
vt 1.000000 0.000000
vt 0.142857 0.000000
vt 0.000000 0.000000
vt 0.857143 0.000000
vt 0.285714 0.000000
vt 0.714286 0.000000
vt 0.428571 0.000000
vt 0.571429 0.000000
vt 0.000000 1.000000
vt 0.125000 0.000000
vt 0.250000 1.000000
vt 0.125000 1.000000
vt 0.250000 0.000000
vt 0.500000 1.000000
vt 0.625000 1.000000
vt 0.500000 0.000000
vt 0.750000 1.000000
vt 0.875000 1.000000
vt 0.750000 0.000000
vt 1.000000 1.000000
vt 0.875000 0.000000
vt 0.454545 0.000000
vt 0.636364 0.000000
vt 0.545455 0.000000
vt 0.727273 0.000000
vt 0.909091 0.000000
vt 0.818182 0.000000
vt 0.363636 0.000000
vt 0.181818 0.000000
vt 0.272727 0.000000
vt 0.090909 0.000000
vt 0.083333 1.000000
vt 0.166667 1.000000
vt 0.083333 0.000000
vt 0.166667 0.000000
vt 0.333333 1.000000
vt 0.416667 1.000000
vt 0.333333 0.000000
vt 0.416667 0.000000
vt 0.583333 1.000000
vt 0.666667 0.000000
vt 0.583333 0.000000
vt 0.666667 1.000000
vt 0.833333 1.000000
vt 0.916667 1.000000
vt 0.833333 0.000000
vt 0.916667 0.000000
vt 0.111111 1.000000
vt 0.222222 1.000000
vt 0.111111 0.000000
vt 0.222222 0.000000
vt 0.444444 1.000000
vt 0.555556 1.000000
vt 0.444444 0.000000
vt 0.555556 0.000000
vt 0.777778 1.000000
vt 0.888889 1.000000
vt 0.777778 0.000000
vt 0.888889 0.000000
vt 0.875000 0.750000
s 1
f 5/1/1 3/2/1 1/3/1
f 3/2/2 8/4/2 4/5/2
f 7/6/3 6/7/3 8/8/3
f 2/9/4 8/10/4 6/11/4
f 1/3/5 4/5/5 2/9/5
f 5/12/6 2/9/6 6/7/6
f 16/13/6 10/14/6 9/15/6
f 16/13/6 15/16/6 10/14/6
f 15/16/6 11/17/6 10/14/6
f 14/18/6 11/17/6 15/16/6
f 14/18/6 12/19/6 11/17/6
f 14/18/6 13/20/6 12/19/6
f 24/13/2 17/15/2 18/14/2
f 24/13/2 18/14/2 23/16/2
f 23/16/2 18/14/2 19/17/2
f 22/18/2 23/16/2 19/17/2
f 22/18/2 19/17/2 20/19/2
f 22/18/2 20/19/2 21/20/2
f 26/21/1 27/22/1 25/15/1
f 30/23/7 27/22/7 28/24/7
f 32/4/1 29/25/1 30/23/1
f 34/26/3 31/8/3 32/4/3
f 36/27/4 33/28/4 34/26/4
f 38/29/8 35/6/8 36/27/8
f 40/30/4 37/31/4 38/29/4
f 26/32/5 39/33/5 40/30/5
f 46/34/2 48/35/2 47/36/2
f 46/34/2 49/37/2 48/35/2
f 49/37/2 51/38/2 50/39/2
f 49/37/2 52/13/2 51/38/2
f 46/34/2 52/13/2 49/37/2
f 45/40/2 52/13/2 46/34/2
f 45/40/2 43/41/2 52/13/2
f 43/41/2 41/15/2 52/13/2
f 45/40/2 44/42/2 43/41/2
f 42/43/2 41/15/2 43/41/2
f 58/34/6 59/36/6 60/35/6
f 58/34/6 60/35/6 61/37/6
f 61/37/6 62/39/6 63/38/6
f 61/37/6 63/38/6 64/13/6
f 58/34/6 61/37/6 64/13/6
f 57/40/6 58/34/6 64/13/6
f 57/40/6 64/13/6 55/41/6
f 55/41/6 64/13/6 53/15/6
f 57/40/6 55/41/6 56/42/6
f 54/43/6 55/41/6 53/15/6
f 68/44/4 65/15/4 66/21/4
f 70/45/9 67/46/9 68/44/9
f 72/23/10 69/47/10 70/45/10
f 74/48/4 71/25/4 72/23/4
f 76/49/11 73/50/11 74/48/11
f 78/26/12 75/51/12 76/49/12
f 80/52/1 77/28/1 78/26/1
f 80/52/13 81/53/13 79/54/13
f 84/29/14 81/53/14 82/55/14
f 86/56/1 83/31/1 84/29/1
f 88/57/15 85/58/15 86/56/15
f 66/32/16 87/59/16 88/57/16
f 94/34/2 96/35/2 95/36/2
f 94/34/2 97/37/2 96/35/2
f 97/37/2 99/38/2 98/39/2
f 97/37/2 100/13/2 99/38/2
f 94/34/2 100/13/2 97/37/2
f 93/40/2 100/13/2 94/34/2
f 93/40/2 91/41/2 100/13/2
f 91/41/2 89/15/2 100/13/2
f 93/40/2 92/42/2 91/41/2
f 90/43/2 89/15/2 91/41/2
f 106/34/6 107/36/6 108/35/6
f 106/34/6 108/35/6 109/37/6
f 109/37/6 110/39/6 111/38/6
f 109/37/6 111/38/6 112/13/6
f 106/34/6 109/37/6 112/13/6
f 105/40/6 106/34/6 112/13/6
f 105/40/6 112/13/6 103/41/6
f 103/41/6 112/13/6 101/15/6
f 105/40/6 103/41/6 104/42/6
f 102/43/6 103/41/6 101/15/6
f 116/44/4 113/15/4 114/21/4
f 118/45/9 115/46/9 116/44/9
f 120/23/10 117/47/10 118/45/10
f 122/48/4 119/25/4 120/23/4
f 122/48/11 123/51/11 121/50/11
f 126/26/12 123/51/12 124/49/12
f 128/52/1 125/28/1 126/26/1
f 130/55/13 127/54/13 128/52/13
f 130/55/14 131/31/14 129/53/14
f 134/56/1 131/31/1 132/29/1
f 136/57/15 133/58/15 134/56/15
f 136/57/16 113/13/16 135/59/16
f 144/13/6 138/14/6 137/15/6
f 144/13/6 143/16/6 138/14/6
f 143/16/6 139/17/6 138/14/6
f 142/18/6 139/17/6 143/16/6
f 142/18/6 140/19/6 139/17/6
f 142/18/6 141/20/6 140/19/6
f 152/13/2 145/15/2 146/14/2
f 152/13/2 146/14/2 151/16/2
f 151/16/2 146/14/2 147/17/2
f 150/18/2 151/16/2 147/17/2
f 150/18/2 147/17/2 148/19/2
f 150/18/2 148/19/2 149/20/2
f 154/21/1 155/22/1 153/15/1
f 156/24/7 157/25/7 155/22/7
f 160/4/1 157/25/1 158/23/1
f 162/26/3 159/8/3 160/4/3
f 164/27/4 161/28/4 162/26/4
f 166/29/8 163/6/8 164/27/8
f 168/30/4 165/31/4 166/29/4
f 154/32/5 167/33/5 168/30/5
f 173/28/2 175/31/2 174/6/2
f 173/28/2 176/33/2 175/31/2
f 176/33/2 169/15/2 177/13/2
f 176/33/2 170/22/2 169/15/2
f 173/28/2 170/22/2 176/33/2
f 172/8/2 170/22/2 173/28/2
f 172/8/2 171/25/2 170/22/2
f 182/28/6 183/6/6 184/31/6
f 182/28/6 184/31/6 185/33/6
f 185/33/6 186/13/6 178/15/6
f 185/33/6 178/15/6 179/22/6
f 182/28/6 185/33/6 179/22/6
f 181/8/6 182/28/6 179/22/6
f 181/8/6 179/22/6 180/25/6
f 190/60/17 187/15/17 188/21/17
f 192/61/5 189/62/5 190/60/5
f 194/48/4 191/63/4 192/61/4
f 196/64/3 193/50/3 194/48/3
f 198/65/18 195/66/18 196/64/18
f 200/55/1 197/67/1 198/65/1
f 202/68/19 199/53/19 200/55/19
f 204/69/20 201/70/20 202/68/20
f 188/32/1 203/71/1 204/69/1
f 209/28/2 211/31/2 210/6/2
f 209/28/2 212/33/2 211/31/2
f 212/33/2 205/15/2 213/13/2
f 212/33/2 206/22/2 205/15/2
f 209/28/2 206/22/2 212/33/2
f 208/8/2 206/22/2 209/28/2
f 208/8/2 207/25/2 206/22/2
f 218/28/6 219/6/6 220/31/6
f 218/28/6 220/31/6 221/33/6
f 221/33/6 222/13/6 214/15/6
f 221/33/6 214/15/6 215/22/6
f 218/28/6 221/33/6 215/22/6
f 217/8/6 218/28/6 215/22/6
f 217/8/6 215/22/6 216/25/6
f 226/60/17 223/15/17 224/21/17
f 228/61/5 225/62/5 226/60/5
f 230/48/4 227/63/4 228/61/4
f 232/64/3 229/50/3 230/48/3
f 232/64/18 233/67/18 231/66/18
f 236/55/1 233/67/1 234/65/1
f 238/68/19 235/53/19 236/55/19
f 240/69/20 237/70/20 238/68/20
f 224/32/1 239/71/1 240/69/1
f 241/15/2 243/53/2 242/50/2
f 241/15/2 244/13/2 243/53/2
f 245/15/6 246/50/6 247/53/6
f 245/15/6 247/53/6 248/13/6
f 252/23/3 249/15/3 250/21/3
f 254/26/1 251/25/1 252/23/1
f 256/29/5 253/28/5 254/26/5
f 250/32/4 255/31/4 256/29/4
f 257/15/2 259/53/2 258/50/2
f 257/15/2 260/13/2 259/53/2
f 261/15/6 262/50/6 263/53/6
f 261/15/6 263/53/6 264/13/6
f 268/23/3 265/15/3 266/21/3
f 270/26/1 267/25/1 268/23/1
f 272/29/5 269/28/5 270/26/5
f 266/32/4 271/31/4 272/29/4
f 273/15/2 275/53/2 274/50/2
f 273/15/2 276/13/2 275/53/2
f 277/15/6 278/50/6 279/53/6
f 277/15/6 279/53/6 280/13/6
f 284/23/3 281/15/3 282/21/3
f 286/26/1 283/25/1 284/23/1
f 288/29/5 285/28/5 286/26/5
f 282/32/4 287/31/4 288/29/4
f 5/1/1 7/72/1 3/2/1
f 3/2/2 7/27/2 8/4/2
f 7/6/3 5/12/3 6/7/3
f 2/9/4 4/5/4 8/10/4
f 1/3/5 3/2/5 4/5/5
f 5/12/6 1/3/6 2/9/6
f 26/21/1 28/24/1 27/22/1
f 30/23/7 29/25/7 27/22/7
f 32/4/1 31/8/1 29/25/1
f 34/26/3 33/28/3 31/8/3
f 36/27/4 35/6/4 33/28/4
f 38/29/8 37/31/8 35/6/8
f 40/30/4 39/33/4 37/31/4
f 26/32/5 25/13/5 39/33/5
f 68/44/4 67/46/4 65/15/4
f 70/45/9 69/47/9 67/46/9
f 72/23/10 71/25/10 69/47/10
f 74/48/4 73/50/4 71/25/4
f 76/49/11 75/51/11 73/50/11
f 78/26/12 77/28/12 75/51/12
f 80/52/1 79/54/1 77/28/1
f 80/52/13 82/55/13 81/53/13
f 84/29/14 83/31/14 81/53/14
f 86/56/1 85/58/1 83/31/1
f 88/57/15 87/59/15 85/58/15
f 66/32/16 65/13/16 87/59/16
f 116/44/4 115/46/4 113/15/4
f 118/45/9 117/47/9 115/46/9
f 120/23/10 119/25/10 117/47/10
f 122/48/4 121/50/4 119/25/4
f 122/48/11 124/49/11 123/51/11
f 126/26/12 125/28/12 123/51/12
f 128/52/1 127/54/1 125/28/1
f 130/55/13 129/53/13 127/54/13
f 130/55/14 132/29/14 131/31/14
f 134/56/1 133/58/1 131/31/1
f 136/57/15 135/59/15 133/58/15
f 136/57/16 114/32/16 113/13/16
f 154/21/1 156/24/1 155/22/1
f 156/24/7 158/23/7 157/25/7
f 160/4/1 159/8/1 157/25/1
f 162/26/3 161/28/3 159/8/3
f 164/27/4 163/6/4 161/28/4
f 166/29/8 165/31/8 163/6/8
f 168/30/4 167/33/4 165/31/4
f 154/32/5 153/13/5 167/33/5
f 190/60/17 189/62/17 187/15/17
f 192/61/5 191/63/5 189/62/5
f 194/48/4 193/50/4 191/63/4
f 196/64/3 195/66/3 193/50/3
f 198/65/18 197/67/18 195/66/18
f 200/55/1 199/53/1 197/67/1
f 202/68/19 201/70/19 199/53/19
f 204/69/20 203/71/20 201/70/20
f 188/32/1 187/13/1 203/71/1
f 226/60/17 225/62/17 223/15/17
f 228/61/5 227/63/5 225/62/5
f 230/48/4 229/50/4 227/63/4
f 232/64/3 231/66/3 229/50/3
f 232/64/18 234/65/18 233/67/18
f 236/55/1 235/53/1 233/67/1
f 238/68/19 237/70/19 235/53/19
f 240/69/20 239/71/20 237/70/20
f 224/32/1 223/13/1 239/71/1
f 252/23/3 251/25/3 249/15/3
f 254/26/1 253/28/1 251/25/1
f 256/29/5 255/31/5 253/28/5
f 250/32/4 249/13/4 255/31/4
f 268/23/3 267/25/3 265/15/3
f 270/26/1 269/28/1 267/25/1
f 272/29/5 271/31/5 269/28/5
f 266/32/4 265/13/4 271/31/4
f 284/23/3 283/25/3 281/15/3
f 286/26/1 285/28/1 283/25/1
f 288/29/5 287/31/5 285/28/5
f 282/32/4 281/13/4 287/31/4
